# MagicaVoxel @ Ephtracy

# material
mtllib TurretTop.mtl
usemtl palette

# normals
vn -1 0 0
vn 1 0 0
vn 0 0 1
vn 0 0 -1
vn 0 -1 0
vn 0 1 0

# texcoords
vt 0.365234 0.5
vt 0.478516 0.5
vt 0.501953 0.5
vt 0.705078 0.5

# verts
v -8 28 6
v -8 28 -9
v -8 29 4
v -8 29 -8
v -8 32 2
v -8 32 -5
v -8 36 2
v -8 36 -5
v -8 39 4
v -8 39 -8
v -8 40 6
v -8 40 -9
v -7 27 6
v -7 27 -9
v -7 28 7
v -7 28 6
v -7 28 -9
v -7 28 -10
v -7 29 4
v -7 29 -8
v -7 32 2
v -7 32 -5
v -7 36 2
v -7 36 -5
v -7 39 4
v -7 39 -8
v -7 40 7
v -7 40 6
v -7 40 -9
v -7 40 -10
v -7 41 6
v -7 41 -9
v -6 26 4
v -6 26 -8
v -6 27 4
v -6 27 -8
v -6 41 4
v -6 41 -8
v -6 42 4
v -6 42 -8
v -4 30 13
v -4 30 10
v -4 30 8
v -4 30 7
v -4 38 13
v -4 38 10
v -4 38 8
v -4 38 7
v -3 29 13
v -3 29 10
v -3 29 8
v -3 29 7
v -3 30 13
v -3 30 10
v -3 30 8
v -3 30 7
v -3 32 18
v -3 32 15
v -3 36 18
v -3 36 15
v -3 38 13
v -3 38 10
v -3 38 8
v -3 38 7
v -3 39 13
v -3 39 10
v -3 39 8
v -3 39 7
v -3 42 2
v -3 42 -5
v -3 44 2
v -3 44 -5
v -2 30 18
v -2 30 15
v -2 32 18
v -2 32 15
v -2 32 13
v -2 32 10
v -2 32 8
v -2 36 18
v -2 36 15
v -2 36 13
v -2 36 10
v -2 36 8
v -2 38 18
v -2 38 15
v 3 32 18
v 3 32 16
v 3 36 18
v 3 36 16
v -2 32 18
v -2 32 16
v -2 36 18
v -2 36 16
v 3 30 18
v 3 30 15
v 3 32 18
v 3 32 15
v 3 32 13
v 3 32 10
v 3 32 8
v 3 36 18
v 3 36 15
v 3 36 13
v 3 36 10
v 3 36 8
v 3 38 18
v 3 38 15
v 4 29 13
v 4 29 10
v 4 29 8
v 4 29 7
v 4 30 13
v 4 30 10
v 4 30 8
v 4 30 7
v 4 32 18
v 4 32 15
v 4 36 18
v 4 36 15
v 4 38 13
v 4 38 10
v 4 38 8
v 4 38 7
v 4 39 13
v 4 39 10
v 4 39 8
v 4 39 7
v 4 42 2
v 4 42 -5
v 4 44 2
v 4 44 -5
v 5 30 13
v 5 30 10
v 5 30 8
v 5 30 7
v 5 38 13
v 5 38 10
v 5 38 8
v 5 38 7
v 6 26 4
v 6 26 -8
v 6 27 4
v 6 27 -8
v 6 41 4
v 6 41 -8
v 6 42 4
v 6 42 -8
v 8 27 6
v 8 27 -9
v 8 28 7
v 8 28 6
v 8 28 -9
v 8 28 -10
v 8 29 4
v 8 29 -8
v 8 32 2
v 8 32 -5
v 8 36 2
v 8 36 -5
v 8 39 4
v 8 39 -8
v 8 40 7
v 8 40 6
v 8 40 -9
v 8 40 -10
v 8 41 6
v 8 41 -9
v 9 28 6
v 9 28 -9
v 9 29 4
v 9 29 -8
v 9 32 2
v 9 32 -5
v 9 36 2
v 9 36 -5
v 9 39 4
v 9 39 -8
v 9 40 6
v 9 40 -9
v -3 32 18
v -3 36 18
v -2 30 18
v -2 32 18
v -2 36 18
v -2 38 18
v 3 30 18
v 3 32 18
v 3 36 18
v 3 38 18
v 4 32 18
v 4 36 18
v -2 32 16
v -2 36 16
v 3 32 16
v 3 36 16
v -4 30 13
v -4 38 13
v -3 29 13
v -3 30 13
v -3 38 13
v -3 39 13
v -2 32 13
v -2 36 13
v 3 32 13
v 3 36 13
v 4 29 13
v 4 30 13
v 4 38 13
v 4 39 13
v 5 30 13
v 5 38 13
v -4 30 8
v -4 38 8
v -3 29 8
v -3 30 8
v -3 38 8
v -3 39 8
v -2 32 8
v -2 36 8
v 3 32 8
v 3 36 8
v 4 29 8
v 4 30 8
v 4 38 8
v 4 39 8
v 5 30 8
v 5 38 8
v -7 28 7
v -7 40 7
v -4 30 7
v -4 38 7
v -3 29 7
v -3 30 7
v -3 38 7
v -3 39 7
v 4 29 7
v 4 30 7
v 4 38 7
v 4 39 7
v 5 30 7
v 5 38 7
v 8 28 7
v 8 40 7
v -8 28 6
v -8 40 6
v -7 27 6
v -7 28 6
v -7 40 6
v -7 41 6
v 8 27 6
v 8 28 6
v 8 40 6
v 8 41 6
v 9 28 6
v 9 40 6
v -6 26 4
v -6 27 4
v -6 41 4
v -6 42 4
v 6 26 4
v 6 27 4
v 6 41 4
v 6 42 4
v -8 32 2
v -8 36 2
v -7 32 2
v -7 36 2
v -3 42 2
v -3 44 2
v 4 42 2
v 4 44 2
v 8 32 2
v 8 36 2
v 9 32 2
v 9 36 2
v -8 29 -8
v -8 39 -8
v -7 29 -8
v -7 39 -8
v 8 29 -8
v 8 39 -8
v 9 29 -8
v 9 39 -8
v -3 32 15
v -3 36 15
v -2 30 15
v -2 32 15
v -2 36 15
v -2 38 15
v 3 30 15
v 3 32 15
v 3 36 15
v 3 38 15
v 4 32 15
v 4 36 15
v -4 30 10
v -4 38 10
v -3 29 10
v -3 30 10
v -3 38 10
v -3 39 10
v -2 32 10
v -2 36 10
v 3 32 10
v 3 36 10
v 4 29 10
v 4 30 10
v 4 38 10
v 4 39 10
v 5 30 10
v 5 38 10
v -8 29 4
v -8 39 4
v -7 29 4
v -7 39 4
v 8 29 4
v 8 39 4
v 9 29 4
v 9 39 4
v -8 32 -5
v -8 36 -5
v -7 32 -5
v -7 36 -5
v -3 42 -5
v -3 44 -5
v 4 42 -5
v 4 44 -5
v 8 32 -5
v 8 36 -5
v 9 32 -5
v 9 36 -5
v -6 26 -8
v -6 27 -8
v -6 41 -8
v -6 42 -8
v 6 26 -8
v 6 27 -8
v 6 41 -8
v 6 42 -8
v -8 28 -9
v -8 40 -9
v -7 27 -9
v -7 28 -9
v -7 40 -9
v -7 41 -9
v 8 27 -9
v 8 28 -9
v 8 40 -9
v 8 41 -9
v 9 28 -9
v 9 40 -9
v -7 28 -10
v -7 40 -10
v 8 28 -10
v 8 40 -10
v -6 26 4
v 6 26 4
v -6 26 -8
v 6 26 -8
v -7 27 6
v 8 27 6
v -6 27 4
v 6 27 4
v -6 27 -8
v 6 27 -8
v -7 27 -9
v 8 27 -9
v -7 28 7
v 8 28 7
v -8 28 6
v -7 28 6
v 8 28 6
v 9 28 6
v -8 28 -9
v -7 28 -9
v 8 28 -9
v 9 28 -9
v -7 28 -10
v 8 28 -10
v -3 29 13
v 4 29 13
v -3 29 10
v 4 29 10
v -3 29 8
v 4 29 8
v -3 29 7
v 4 29 7
v -2 30 18
v 3 30 18
v -2 30 15
v 3 30 15
v -4 30 13
v -3 30 13
v 4 30 13
v 5 30 13
v -4 30 10
v -3 30 10
v 4 30 10
v 5 30 10
v -4 30 8
v -3 30 8
v 4 30 8
v 5 30 8
v -4 30 7
v -3 30 7
v 4 30 7
v 5 30 7
v -3 32 18
v -2 32 18
v 3 32 18
v 4 32 18
v -3 32 15
v -2 32 15
v 3 32 15
v 4 32 15
v -2 32 13
v 3 32 13
v -2 32 10
v 3 32 10
v -2 32 8
v 3 32 8
v -8 32 2
v -7 32 2
v 8 32 2
v 9 32 2
v -8 32 -5
v -7 32 -5
v 8 32 -5
v 9 32 -5
v -2 36 18
v 3 36 18
v -2 36 16
v 3 36 16
v -8 39 4
v -7 39 4
v 8 39 4
v 9 39 4
v -8 39 -8
v -7 39 -8
v 8 39 -8
v 9 39 -8
v -8 29 4
v -7 29 4
v 8 29 4
v 9 29 4
v -8 29 -8
v -7 29 -8
v 8 29 -8
v 9 29 -8
v -2 32 18
v 3 32 18
v -2 32 16
v 3 32 16
v -3 36 18
v -2 36 18
v 3 36 18
v 4 36 18
v -3 36 15
v -2 36 15
v 3 36 15
v 4 36 15
v -2 36 13
v 3 36 13
v -2 36 10
v 3 36 10
v -2 36 8
v 3 36 8
v -8 36 2
v -7 36 2
v 8 36 2
v 9 36 2
v -8 36 -5
v -7 36 -5
v 8 36 -5
v 9 36 -5
v -2 38 18
v 3 38 18
v -2 38 15
v 3 38 15
v -4 38 13
v -3 38 13
v 4 38 13
v 5 38 13
v -4 38 10
v -3 38 10
v 4 38 10
v 5 38 10
v -4 38 8
v -3 38 8
v 4 38 8
v 5 38 8
v -4 38 7
v -3 38 7
v 4 38 7
v 5 38 7
v -3 39 13
v 4 39 13
v -3 39 10
v 4 39 10
v -3 39 8
v 4 39 8
v -3 39 7
v 4 39 7
v -7 40 7
v 8 40 7
v -8 40 6
v -7 40 6
v 8 40 6
v 9 40 6
v -8 40 -9
v -7 40 -9
v 8 40 -9
v 9 40 -9
v -7 40 -10
v 8 40 -10
v -7 41 6
v 8 41 6
v -6 41 4
v 6 41 4
v -6 41 -8
v 6 41 -8
v -7 41 -9
v 8 41 -9
v -6 42 4
v 6 42 4
v -3 42 2
v 4 42 2
v -3 42 -5
v 4 42 -5
v -6 42 -8
v 6 42 -8
v -3 44 2
v 4 44 2
v -2 44 1
v 3 44 1
v -2 44 -4
v 3 44 -4
v -3 44 -5
v 4 44 -5

# faces
f 3/3/1 2/3/1 1/3/1
f 4/3/1 2/3/1 3/3/1
f 7/1/1 6/1/1 5/1/1
f 8/1/1 6/1/1 7/1/1
f 9/3/1 3/3/1 1/3/1
f 10/3/1 2/3/1 4/3/1
f 11/3/1 9/3/1 1/3/1
f 11/3/1 10/3/1 9/3/1
f 12/3/1 2/3/1 10/3/1
f 12/3/1 10/3/1 11/3/1
f 16/3/1 14/3/1 13/3/1
f 17/3/1 14/3/1 16/3/1
f 21/4/1 20/4/1 19/4/1
f 22/4/1 20/4/1 21/4/1
f 23/4/1 21/4/1 19/4/1
f 24/4/1 20/4/1 22/4/1
f 25/4/1 23/4/1 19/4/1
f 25/4/1 24/4/1 23/4/1
f 26/4/1 20/4/1 24/4/1
f 26/4/1 24/4/1 25/4/1
f 27/3/1 16/3/1 15/3/1
f 28/3/1 16/3/1 27/3/1
f 29/3/1 18/3/1 17/3/1
f 30/3/1 18/3/1 29/3/1
f 31/3/1 29/3/1 28/3/1
f 32/3/1 29/3/1 31/3/1
f 35/3/1 34/3/1 33/3/1
f 36/3/1 34/3/1 35/3/1
f 39/3/1 38/3/1 37/3/1
f 40/3/1 38/3/1 39/3/1
f 45/1/1 42/1/1 41/1/1
f 46/1/1 42/1/1 45/1/1
f 47/1/1 44/1/1 43/1/1
f 48/1/1 44/1/1 47/1/1
f 53/1/1 50/1/1 49/1/1
f 54/1/1 50/1/1 53/1/1
f 55/1/1 52/1/1 51/1/1
f 56/1/1 52/1/1 55/1/1
f 59/1/1 58/1/1 57/1/1
f 60/1/1 58/1/1 59/1/1
f 65/1/1 62/1/1 61/1/1
f 66/1/1 62/1/1 65/1/1
f 67/1/1 64/1/1 63/1/1
f 68/1/1 64/1/1 67/1/1
f 71/1/1 70/1/1 69/1/1
f 72/1/1 70/1/1 71/1/1
f 75/1/1 74/1/1 73/1/1
f 76/1/1 74/1/1 75/1/1
f 81/4/1 77/4/1 76/4/1
f 82/4/1 77/4/1 81/4/1
f 83/4/1 79/4/1 78/4/1
f 84/4/1 79/4/1 83/4/1
f 85/1/1 81/1/1 80/1/1
f 86/1/1 81/1/1 85/1/1
f 89/1/1 88/1/1 87/1/1
f 90/1/1 88/1/1 89/1/1
f 91/1/2 92/1/2 93/1/2
f 93/1/2 92/1/2 94/1/2
f 95/1/2 96/1/2 97/1/2
f 97/1/2 96/1/2 98/1/2
f 98/4/2 99/4/2 103/4/2
f 103/4/2 99/4/2 104/4/2
f 100/4/2 101/4/2 105/4/2
f 105/4/2 101/4/2 106/4/2
f 102/1/2 103/1/2 107/1/2
f 107/1/2 103/1/2 108/1/2
f 109/1/2 110/1/2 113/1/2
f 113/1/2 110/1/2 114/1/2
f 111/1/2 112/1/2 115/1/2
f 115/1/2 112/1/2 116/1/2
f 117/1/2 118/1/2 119/1/2
f 119/1/2 118/1/2 120/1/2
f 121/1/2 122/1/2 125/1/2
f 125/1/2 122/1/2 126/1/2
f 123/1/2 124/1/2 127/1/2
f 127/1/2 124/1/2 128/1/2
f 129/1/2 130/1/2 131/1/2
f 131/1/2 130/1/2 132/1/2
f 133/1/2 134/1/2 137/1/2
f 137/1/2 134/1/2 138/1/2
f 135/1/2 136/1/2 139/1/2
f 139/1/2 136/1/2 140/1/2
f 141/3/2 142/3/2 143/3/2
f 143/3/2 142/3/2 144/3/2
f 145/3/2 146/3/2 147/3/2
f 147/3/2 146/3/2 148/3/2
f 149/3/2 150/3/2 152/3/2
f 152/3/2 150/3/2 153/3/2
f 155/4/2 156/4/2 157/4/2
f 157/4/2 156/4/2 158/4/2
f 155/4/2 157/4/2 159/4/2
f 158/4/2 156/4/2 160/4/2
f 155/4/2 159/4/2 161/4/2
f 159/4/2 160/4/2 161/4/2
f 160/4/2 156/4/2 162/4/2
f 161/4/2 160/4/2 162/4/2
f 151/3/2 152/3/2 163/3/2
f 163/3/2 152/3/2 164/3/2
f 153/3/2 154/3/2 165/3/2
f 165/3/2 154/3/2 166/3/2
f 164/3/2 165/3/2 167/3/2
f 167/3/2 165/3/2 168/3/2
f 169/3/2 170/3/2 171/3/2
f 171/3/2 170/3/2 172/3/2
f 173/1/2 174/1/2 175/1/2
f 175/1/2 174/1/2 176/1/2
f 169/3/2 171/3/2 177/3/2
f 172/3/2 170/3/2 178/3/2
f 169/3/2 177/3/2 179/3/2
f 177/3/2 178/3/2 179/3/2
f 178/3/2 170/3/2 180/3/2
f 179/3/2 178/3/2 180/3/2
f 184/1/3 182/1/3 181/1/3
f 185/1/3 182/1/3 184/1/3
f 187/1/3 184/1/3 183/1/3
f 188/1/3 184/1/3 187/1/3
f 189/1/3 186/1/3 185/1/3
f 190/1/3 186/1/3 189/1/3
f 191/1/3 189/1/3 188/1/3
f 192/1/3 189/1/3 191/1/3
f 195/4/3 194/4/3 193/4/3
f 196/4/3 194/4/3 195/4/3
f 200/1/3 198/1/3 197/1/3
f 201/1/3 198/1/3 200/1/3
f 203/1/3 200/1/3 199/1/3
f 203/1/3 202/1/3 201/1/3
f 203/1/3 201/1/3 200/1/3
f 204/1/3 202/1/3 203/1/3
f 205/1/3 203/1/3 199/1/3
f 206/1/3 202/1/3 204/1/3
f 207/1/3 205/1/3 199/1/3
f 207/1/3 206/1/3 205/1/3
f 208/1/3 206/1/3 207/1/3
f 209/1/3 202/1/3 206/1/3
f 209/1/3 206/1/3 208/1/3
f 210/1/3 202/1/3 209/1/3
f 211/1/3 209/1/3 208/1/3
f 212/1/3 209/1/3 211/1/3
f 216/1/3 214/1/3 213/1/3
f 217/1/3 214/1/3 216/1/3
f 219/1/3 216/1/3 215/1/3
f 219/1/3 218/1/3 217/1/3
f 219/1/3 217/1/3 216/1/3
f 220/1/3 218/1/3 219/1/3
f 221/1/3 219/1/3 215/1/3
f 222/1/3 218/1/3 220/1/3
f 223/1/3 221/1/3 215/1/3
f 223/1/3 222/1/3 221/1/3
f 224/1/3 222/1/3 223/1/3
f 225/1/3 218/1/3 222/1/3
f 225/1/3 222/1/3 224/1/3
f 226/1/3 218/1/3 225/1/3
f 227/1/3 225/1/3 224/1/3
f 228/1/3 225/1/3 227/1/3
f 231/3/3 230/3/3 229/3/3
f 232/3/3 230/3/3 231/3/3
f 233/3/3 231/3/3 229/3/3
f 234/3/3 231/3/3 233/3/3
f 235/3/3 230/3/3 232/3/3
f 236/3/3 230/3/3 235/3/3
f 237/3/3 233/3/3 229/3/3
f 240/3/3 230/3/3 236/3/3
f 241/3/3 238/3/3 237/3/3
f 242/3/3 240/3/3 239/3/3
f 243/3/3 241/3/3 237/3/3
f 243/3/3 242/3/3 241/3/3
f 243/3/3 237/3/3 229/3/3
f 244/3/3 240/3/3 242/3/3
f 244/3/3 242/3/3 243/3/3
f 244/3/3 230/3/3 240/3/3
f 248/3/3 246/3/3 245/3/3
f 249/3/3 246/3/3 248/3/3
f 251/3/3 248/3/3 247/3/3
f 252/3/3 248/3/3 251/3/3
f 253/3/3 250/3/3 249/3/3
f 254/3/3 250/3/3 253/3/3
f 255/3/3 253/3/3 252/3/3
f 256/3/3 253/3/3 255/3/3
f 261/3/3 258/3/3 257/3/3
f 262/3/3 258/3/3 261/3/3
f 263/3/3 260/3/3 259/3/3
f 264/3/3 260/3/3 263/3/3
f 267/1/3 266/1/3 265/1/3
f 268/1/3 266/1/3 267/1/3
f 271/1/3 270/1/3 269/1/3
f 272/1/3 270/1/3 271/1/3
f 275/1/3 274/1/3 273/1/3
f 276/1/3 274/1/3 275/1/3
f 279/3/3 278/3/3 277/3/3
f 280/3/3 278/3/3 279/3/3
f 283/3/3 282/3/3 281/3/3
f 284/3/3 282/3/3 283/3/3
f 285/1/4 286/1/4 288/1/4
f 288/1/4 286/1/4 289/1/4
f 287/1/4 288/1/4 291/1/4
f 291/1/4 288/1/4 292/1/4
f 289/1/4 290/1/4 293/1/4
f 293/1/4 290/1/4 294/1/4
f 292/1/4 293/1/4 295/1/4
f 295/1/4 293/1/4 296/1/4
f 297/1/4 298/1/4 300/1/4
f 300/1/4 298/1/4 301/1/4
f 299/1/4 300/1/4 303/1/4
f 301/1/4 302/1/4 303/1/4
f 300/1/4 301/1/4 303/1/4
f 303/1/4 302/1/4 304/1/4
f 299/1/4 303/1/4 305/1/4
f 304/1/4 302/1/4 306/1/4
f 299/1/4 305/1/4 307/1/4
f 305/1/4 306/1/4 307/1/4
f 307/1/4 306/1/4 308/1/4
f 306/1/4 302/1/4 309/1/4
f 308/1/4 306/1/4 309/1/4
f 309/1/4 302/1/4 310/1/4
f 308/1/4 309/1/4 311/1/4
f 311/1/4 309/1/4 312/1/4
f 313/3/4 314/3/4 315/3/4
f 315/3/4 314/3/4 316/3/4
f 317/3/4 318/3/4 319/3/4
f 319/3/4 318/3/4 320/3/4
f 321/1/4 322/1/4 323/1/4
f 323/1/4 322/1/4 324/1/4
f 325/1/4 326/1/4 327/1/4
f 327/1/4 326/1/4 328/1/4
f 329/1/4 330/1/4 331/1/4
f 331/1/4 330/1/4 332/1/4
f 333/3/4 334/3/4 337/3/4
f 337/3/4 334/3/4 338/3/4
f 335/3/4 336/3/4 339/3/4
f 339/3/4 336/3/4 340/3/4
f 341/3/4 342/3/4 344/3/4
f 344/3/4 342/3/4 345/3/4
f 343/3/4 344/3/4 347/3/4
f 347/3/4 344/3/4 348/3/4
f 345/3/4 346/3/4 349/3/4
f 349/3/4 346/3/4 350/3/4
f 348/3/4 349/3/4 351/3/4
f 351/3/4 349/3/4 352/3/4
f 353/3/4 354/3/4 355/3/4
f 355/3/4 354/3/4 356/3/4
f 359/3/5 358/3/5 357/3/5
f 360/3/5 358/3/5 359/3/5
f 363/3/5 362/3/5 361/3/5
f 364/3/5 362/3/5 363/3/5
f 365/3/5 363/3/5 361/3/5
f 366/3/5 362/3/5 364/3/5
f 367/3/5 365/3/5 361/3/5
f 367/3/5 366/3/5 365/3/5
f 368/3/5 362/3/5 366/3/5
f 368/3/5 366/3/5 367/3/5
f 372/3/5 370/3/5 369/3/5
f 373/3/5 370/3/5 372/3/5
f 375/3/5 372/3/5 371/3/5
f 376/3/5 372/3/5 375/3/5
f 377/3/5 374/3/5 373/3/5
f 378/3/5 374/3/5 377/3/5
f 379/3/5 377/3/5 376/3/5
f 380/3/5 377/3/5 379/3/5
f 383/1/5 382/1/5 381/1/5
f 384/1/5 382/1/5 383/1/5
f 387/1/5 386/1/5 385/1/5
f 388/1/5 386/1/5 387/1/5
f 391/1/5 390/1/5 389/1/5
f 392/1/5 390/1/5 391/1/5
f 397/1/5 394/1/5 393/1/5
f 398/1/5 394/1/5 397/1/5
f 399/1/5 396/1/5 395/1/5
f 400/1/5 396/1/5 399/1/5
f 405/1/5 402/1/5 401/1/5
f 406/1/5 402/1/5 405/1/5
f 407/1/5 404/1/5 403/1/5
f 408/1/5 404/1/5 407/1/5
f 413/1/5 410/1/5 409/1/5
f 414/1/5 410/1/5 413/1/5
f 415/1/5 412/1/5 411/1/5
f 416/1/5 412/1/5 415/1/5
f 417/4/5 415/4/5 414/4/5
f 418/4/5 415/4/5 417/4/5
f 421/4/5 420/4/5 419/4/5
f 422/4/5 420/4/5 421/4/5
f 427/1/5 424/1/5 423/1/5
f 428/1/5 424/1/5 427/1/5
f 429/1/5 426/1/5 425/1/5
f 430/1/5 426/1/5 429/1/5
f 433/1/5 432/1/5 431/1/5
f 434/1/5 432/1/5 433/1/5
f 439/3/5 436/3/5 435/3/5
f 440/3/5 436/3/5 439/3/5
f 441/3/5 438/3/5 437/3/5
f 442/3/5 438/3/5 441/3/5
f 443/3/6 444/3/6 447/3/6
f 447/3/6 444/3/6 448/3/6
f 445/3/6 446/3/6 449/3/6
f 449/3/6 446/3/6 450/3/6
f 451/1/6 452/1/6 453/1/6
f 453/1/6 452/1/6 454/1/6
f 455/1/6 456/1/6 459/1/6
f 459/1/6 456/1/6 460/1/6
f 457/1/6 458/1/6 461/1/6
f 461/1/6 458/1/6 462/1/6
f 460/4/6 461/4/6 463/4/6
f 463/4/6 461/4/6 464/4/6
f 465/4/6 466/4/6 467/4/6
f 467/4/6 466/4/6 468/4/6
f 469/1/6 470/1/6 473/1/6
f 473/1/6 470/1/6 474/1/6
f 471/1/6 472/1/6 475/1/6
f 475/1/6 472/1/6 476/1/6
f 477/1/6 478/1/6 479/1/6
f 479/1/6 478/1/6 480/1/6
f 481/1/6 482/1/6 485/1/6
f 485/1/6 482/1/6 486/1/6
f 483/1/6 484/1/6 487/1/6
f 487/1/6 484/1/6 488/1/6
f 489/1/6 490/1/6 493/1/6
f 493/1/6 490/1/6 494/1/6
f 491/1/6 492/1/6 495/1/6
f 495/1/6 492/1/6 496/1/6
f 497/1/6 498/1/6 499/1/6
f 499/1/6 498/1/6 500/1/6
f 501/1/6 502/1/6 503/1/6
f 503/1/6 502/1/6 504/1/6
f 505/3/6 506/3/6 508/3/6
f 508/3/6 506/3/6 509/3/6
f 507/3/6 508/3/6 511/3/6
f 511/3/6 508/3/6 512/3/6
f 509/3/6 510/3/6 513/3/6
f 513/3/6 510/3/6 514/3/6
f 512/3/6 513/3/6 515/3/6
f 515/3/6 513/3/6 516/3/6
f 517/3/6 518/3/6 519/3/6
f 519/3/6 518/3/6 520/3/6
f 517/3/6 519/3/6 521/3/6
f 520/3/6 518/3/6 522/3/6
f 517/3/6 521/3/6 523/3/6
f 521/3/6 522/3/6 523/3/6
f 522/3/6 518/3/6 524/3/6
f 523/3/6 522/3/6 524/3/6
f 525/3/6 526/3/6 527/3/6
f 527/3/6 526/3/6 528/3/6
f 525/3/6 527/3/6 529/3/6
f 528/3/6 526/3/6 530/3/6
f 525/3/6 529/3/6 531/3/6
f 529/3/6 530/3/6 531/3/6
f 530/3/6 526/3/6 532/3/6
f 531/3/6 530/3/6 532/3/6
f 533/1/6 534/1/6 535/1/6
f 535/1/6 534/1/6 536/1/6
f 533/1/6 535/1/6 537/1/6
f 535/2/6 536/2/6 537/2/6
f 536/1/6 534/1/6 538/1/6
f 537/2/6 536/2/6 538/2/6
f 533/1/6 537/1/6 539/1/6
f 537/1/6 538/1/6 539/1/6
f 538/1/6 534/1/6 540/1/6
f 539/1/6 538/1/6 540/1/6
